<?xml version="1.0" standalone="no"?>
<!DOCTYPE svg PUBLIC "-//W3C//DTD SVG 20010904//EN"
 "http://www.w3.org/TR/2001/REC-SVG-20010904/DTD/svg10.dtd">
<svg version="1.0" xmlns="http://www.w3.org/2000/svg"
 width="155.000000pt" height="135.000000pt" viewBox="0 0 155.000000 135.000000"
 preserveAspectRatio="xMidYMid meet">
<metadata>
    checkrd Logo
</metadata>
<g transform="translate(-75.000000,175.000000) scale(0.050000,-0.050000)"
fill="#F2A007" stroke="none">
<path d="M2759 3351 c-720 -150 -1149 -808 -927 -1421 61 -170 81 -254 50
-210 -64 90 -9 -40 72 -171 338 -548 1088 -727 1726 -413 265 131 527 441 569
674 6 33 5 47 -2 30 -19 -44 -135 -209 -152 -217 -8 -3 -28 -35 -45 -70 -17
-34 -63 -85 -102 -113 -39 -27 -93 -70 -119 -95 -26 -25 -55 -47 -64 -48 -42
-7 -125 -43 -125 -55 0 -7 -52 -30 -115 -50 -63 -20 -128 -42 -145 -48 -16 -5
-42 -8 -57 -6 -15 3 -42 -2 -60 -10 -48 -22 -103 -25 -103 -6 0 9 -23 8 -51
-2 -78 -30 -255 -24 -326 11 -34 18 -71 27 -81 20 -10 -6 -51 3 -91 20 -40 17
-81 25 -92 18 -10 -6 -19 -1 -19 11 0 12 -9 17 -20 10 -11 -7 -20 -3 -20 9 0
11 -18 21 -40 21 -22 0 -40 8 -40 17 0 25 -100 65 -125 50 -11 -7 -16 -4 -9 7
7 11 -5 37 -26 56 -22 20 -40 30 -40 22 0 -7 -12 -3 -26 10 -14 14 -25 41 -25
61 0 33 6 31 46 -13 26 -27 54 -50 62 -50 9 0 33 -16 54 -36 22 -20 44 -37 49
-39 25 -6 96 -33 160 -61 78 -33 90 -37 156 -41 26 -2 42 -10 37 -19 -22 -36
468 -41 624 -7 939 206 1291 1180 654 1810 -301 298 -782 434 -1212 344z m242
-231 c11 0 19 13 19 29 0 41 39 60 67 32 17 -18 15 -20 -12 -10 -28 11 -35 2
-35 -41 0 -48 -7 -53 -50 -45 -28 5 -56 2 -62 -8 -6 -10 -20 -12 -30 -6 -11 7
-35 6 -54 -2 -19 -8 -43 -16 -54 -18 -103 -13 -190 -38 -190 -55 0 -11 -13
-15 -29 -9 -15 6 -39 -3 -52 -19 -14 -16 -41 -24 -62 -17 -29 9 -34 4 -23 -23
10 -27 5 -32 -22 -22 -19 8 -30 6 -24 -3 10 -16 -83 -130 -119 -145 -120 -51
-279 -555 -200 -634 6 -6 11 35 11 92 0 119 63 304 137 403 76 102 243 261
274 261 15 0 36 16 47 35 12 19 21 27 21 18 1 -10 15 -6 33 9 18 14 51 29 73
32 23 4 52 14 63 23 12 8 45 14 72 12 28 -3 56 5 63 17 8 12 62 22 120 23 97
2 107 6 102 45 -4 39 3 42 69 32 52 -9 68 -6 58 11 -9 15 3 23 37 23 38 0 51
-10 51 -41 0 -23 8 -37 17 -31 21 13 123 -31 123 -53 0 -8 18 -15 40 -15 23 0
40 -13 40 -32 0 -22 -11 -28 -35 -19 -27 10 -30 8 -11 -11 28 -28 88 8 80 49
-2 13 10 23 26 23 18 0 30 -19 30 -48 1 -53 50 -81 130 -72 28 2 34 1 15 -4
-54 -14 -41 -55 25 -80 33 -12 60 -37 60 -54 0 -18 8 -32 18 -32 9 0 29 -29
43 -65 15 -36 33 -70 41 -75 87 -61 124 -519 51 -650 -18 -33 -33 -69 -33 -80
0 -90 -206 -307 -366 -387 l-118 -58 47 -33 c25 -17 37 -32 26 -32 -11 0 -41
15 -66 32 -34 24 -52 27 -69 10 -12 -12 -43 -22 -68 -22 -25 0 -46 -9 -46 -20
0 -11 15 -20 34 -20 26 0 29 -5 10 -24 -18 -18 -31 -16 -59 8 -38 33 -295 28
-274 -6 6 -10 2 -18 -10 -18 -11 0 -21 10 -21 23 0 14 -26 18 -75 11 -41 -5
-62 -5 -45 1 16 6 -29 23 -100 38 -279 56 -562 254 -686 478 -131 239 -147
561 -39 754 35 61 58 115 52 122 -6 6 21 39 61 74 40 35 72 75 72 89 0 14 23
31 50 38 28 7 50 27 50 45 0 20 11 27 30 20 17 -7 30 -5 30 3 0 29 123 88 161
78 22 -6 34 -2 27 9 -7 11 12 14 45 6 42 -9 49 -7 28 8 -35 24 -29 33 37 53
32 10 43 7 33 -8 -7 -12 -4 -38 8 -57 18 -30 20 -28 16 15 -6 64 74 82 116 27
15 -21 28 -27 28 -14 1 14 18 19 44 12 34 -9 41 -4 32 20 -7 17 -6 37 1 45 8
8 17 -5 20 -28 4 -23 15 -42 25 -42z m-377 -1835 c-20 -7 -244 86 -244 101 0
5 59 -15 132 -43 72 -29 123 -55 112 -58z m292 -46 l134 -17 -150 7 c-82 4
-172 18 -200 30 -46 20 -45 20 16 9 36 -6 126 -19 200 -29z"/>
<path d="M3131 3081 c-12 -19 33 -41 114 -54 31 -5 55 0 55 12 0 11 -18 21
-40 21 -22 0 -40 7 -40 16 0 21 -77 26 -89 5z"/>
<path d="M2985 2966 c30 -5 64 -26 75 -46 25 -47 153 -74 202 -43 31 19 34 17
24 -11 -10 -26 -4 -30 31 -21 29 8 43 2 43 -17 0 -16 20 -28 46 -28 26 0 66
-18 89 -40 24 -22 52 -40 62 -40 33 0 177 -177 222 -272 77 -164 49 -480 -53
-592 -18 -20 -27 -42 -20 -49 26 -25 95 86 145 233 42 125 49 135 39 63 -18
-139 -139 -345 -186 -316 -23 14 -110 -75 -91 -93 8 -8 2 -14 -11 -14 -14 0
-43 -20 -65 -45 -22 -25 -34 -34 -27 -20 8 16 1 20 -19 13 -17 -7 -26 -19 -21
-28 13 -20 -39 -40 -107 -40 -43 -1 -47 -5 -23 -22 23 -16 15 -19 -35 -10 -36
6 -65 4 -65 -5 0 -45 -480 -32 -496 15 -4 12 -22 22 -41 22 -54 0 -276 155
-344 241 -34 43 -57 79 -50 79 7 0 -5 19 -27 42 -58 63 -96 297 -66 410 13 49
24 106 24 128 0 22 9 40 20 40 11 0 20 14 20 30 0 17 7 30 17 30 9 0 28 22 43
49 14 27 34 45 44 38 10 -6 5 -21 -12 -34 -60 -47 -123 -237 -126 -383 l-3
-140 15 111 c33 231 209 497 373 559 28 11 47 27 42 35 -5 8 18 16 51 17 33 1
67 14 76 29 10 16 51 24 110 22 58 -2 88 4 80 17 -17 28 17 25 46 -4 28 -28
32 1 6 41 -11 18 -44 25 -98 20 -44 -4 -76 -1 -71 8 5 8 -5 15 -23 15 -19 0
-29 -14 -26 -35 5 -27 -6 -34 -47 -29 -29 4 -59 -3 -66 -15 -7 -11 -27 -21
-43 -21 -17 0 -25 9 -18 20 7 11 -2 14 -21 7 -24 -9 -26 -17 -8 -28 17 -10 11
-22 -21 -39 -40 -22 -44 -20 -33 9 11 30 6 29 -49 -3 -75 -44 -127 -101 -73
-80 82 33 102 35 55 6 -27 -17 -64 -26 -82 -21 -92 28 -264 -320 -263 -531 0
-131 65 -363 105 -377 11 -3 20 -18 20 -32 0 -30 189 -211 220 -211 12 0 16
-10 8 -23 -8 -13 -3 -19 14 -13 15 5 40 -3 54 -17 36 -36 297 -114 324 -97 12
7 35 3 50 -10 21 -18 55 -19 125 -5 52 11 120 20 150 20 84 1 158 24 145 45
-7 11 1 15 17 8 50 -19 219 83 345 209 362 361 239 911 -264 1175 -135 72
-292 110 -252 63 24 -29 14 -55 -21 -55 -9 0 -12 8 -6 18 33 54 -15 82 -136
79 -68 -2 -98 -7 -68 -11z"/>
<path d="M2900 2792 c0 -18 -16 -32 -35 -32 -30 1 -31 3 -5 21 46 31 -79 0
-140 -35 -45 -25 -45 -27 -6 -19 66 13 36 -35 -46 -74 -39 -18 -65 -42 -59
-52 7 -10 1 -25 -12 -33 -15 -9 -18 -5 -7 12 12 19 8 23 -16 14 -22 -8 -29 -3
-21 17 6 16 33 35 59 41 26 7 48 25 48 41 0 33 -23 22 -104 -49 -45 -41 -50
-54 -30 -87 19 -30 18 -42 -2 -55 -15 -9 -30 -33 -33 -54 -3 -21 -14 -37 -24
-35 -9 2 -19 -61 -20 -140 -4 -136 -3 -138 12 -42 18 117 47 177 132 271 114
128 221 182 386 196 16 1 22 15 16 32 -14 35 29 40 62 7 12 -12 59 -22 103
-22 45 0 77 -8 71 -16 -5 -9 -1 -22 9 -28 11 -6 25 -2 32 9 7 11 21 15 32 9
10 -6 13 -21 6 -32 -6 -11 0 -17 15 -13 57 13 172 -81 235 -190 113 -199 86
-451 -65 -592 -29 -26 -46 -57 -39 -68 7 -12 2 -14 -11 -6 -13 8 -29 0 -36
-18 -7 -18 -25 -27 -41 -21 -15 6 -23 2 -16 -9 17 -27 -75 -60 -133 -47 -37 8
-41 6 -17 -11 25 -18 24 -21 -10 -22 -22 0 -75 -6 -118 -13 -49 -8 -74 -6 -66
6 7 12 -11 16 -46 11 -33 -5 -77 5 -103 24 -25 18 -55 32 -66 32 -12 0 -7 -9
9 -20 18 -12 21 -20 6 -20 -13 0 -31 11 -40 25 -9 14 -54 50 -101 81 -116 74
-165 118 -165 146 0 13 -20 38 -45 56 -25 19 -35 29 -22 23 15 -7 20 3 12 31
-7 30 -15 34 -26 16 -23 -37 -44 98 -32 204 13 114 33 178 57 178 10 0 13 9 6
20 -7 11 -2 20 10 20 12 0 17 9 10 20 -7 12 -1 19 14 15 31 -6 36 48 4 59 -38
13 -146 -235 -154 -354 -19 -251 211 -558 456 -608 33 -7 83 -17 110 -23 242
-50 792 130 654 214 -16 11 -10 32 21 75 25 33 45 75 45 92 0 18 8 27 19 21
24 -15 48 61 29 92 -9 14 -5 18 9 9 15 -9 23 2 23 32 0 25 6 69 12 96 9 39 7
44 -10 20 -27 -37 -27 -28 -3 58 11 37 13 78 6 90 -8 12 -15 28 -15 35 -1 75
-289 337 -370 337 -16 0 -52 12 -80 26 -80 41 -340 45 -340 6z"/>
<path d="M2951 2625 c-20 -19 -30 -24 -23 -10 9 15 2 25 -18 25 -19 0 -27 -9
-18 -23 9 -14 5 -18 -9 -9 -28 18 -167 -46 -152 -70 6 -10 -3 -12 -20 -6 -20
8 -31 1 -31 -21 0 -21 9 -28 25 -19 14 8 10 -2 -7 -24 -18 -21 -29 -51 -24
-68 8 -26 6 -26 -11 -1 -14 20 -14 38 -1 54 12 14 13 28 1 35 -38 24 -142
-176 -143 -276 -3 -494 790 -649 1013 -198 28 57 47 116 41 130 -6 17 -14 12
-24 -14 -7 -22 -23 -64 -33 -92 -26 -70 -157 -198 -157 -153 0 17 26 58 58 90
169 169 63 604 -147 605 -43 1 -116 38 -81 42 11 1 -2 9 -30 18 -86 27 -170
21 -209 -15z m89 -55 c14 -16 44 -30 67 -30 357 0 447 -522 115 -659 -47 -20
-57 -32 -38 -44 19 -12 15 -17 -14 -18 -22 -1 -65 -4 -95 -6 -30 -3 -55 1 -55
7 0 7 -29 9 -65 5 -46 -6 -78 4 -109 34 -24 22 -53 41 -63 41 -10 0 -29 13
-43 30 -13 16 -34 24 -45 17 -12 -7 -15 -4 -8 8 7 11 -1 32 -17 45 -17 14 -30
42 -30 63 0 21 -11 43 -25 48 -36 14 -34 229 2 229 21 0 24 -18 14 -70 -8 -46
-5 -70 9 -70 12 0 17 8 11 18 -20 33 49 160 118 215 48 39 62 60 45 71 -14 9
4 16 42 16 37 0 61 8 55 18 -6 10 7 14 29 8 28 -7 40 -1 40 22 0 40 27 41 60
2z"/>
<path d="M2866 2441 c-307 -188 -73 -621 282 -522 80 23 212 122 212 160 0 10
5 34 12 54 7 21 -7 6 -31 -31 -52 -80 -128 -147 -138 -120 -4 10 22 51 56 90
71 81 65 345 -8 313 -6 -3 -10 0 -10 7 2 16 -66 67 -90 67 -10 1 -1 -13 20
-30 37 -30 37 -30 -6 -9 -25 12 -45 30 -45 41 0 35 -187 21 -254 -20z m131
-63 c-37 -23 -120 4 -97 32 16 20 32 20 69 3 26 -12 39 -28 28 -35z m-115 -27
c10 6 18 2 18 -10 0 -11 -8 -21 -18 -21 -9 0 -22 -19 -28 -41 -10 -38 -6 -37
39 9 88 88 210 90 302 6 91 -83 37 -235 -94 -264 -33 -7 -66 -21 -72 -32 -6
-10 -31 -17 -55 -16 -41 2 -41 3 6 18 50 16 50 16 4 18 -26 1 -61 16 -78 33
-26 26 -35 27 -50 5 -14 -21 -17 -20 -13 4 3 17 -5 48 -17 70 -36 65 -41 201
-6 180 11 -7 21 8 22 34 0 25 6 35 11 21 6 -14 19 -20 29 -14z"/>
<path d="M2954 2264 c-45 -50 -43 -110 6 -154 77 -70 220 -34 220 55 0 38 -1
38 -35 -4 -34 -42 -37 -42 -102 -9 -48 24 -60 38 -41 49 14 9 33 12 42 7 9 -6
16 4 16 22 0 18 10 26 22 19 12 -7 16 -37 10 -66 -11 -52 -11 -53 12 -6 47 94
-78 167 -150 87z"/>
</g>
</svg>
